<?xml version="1.0" encoding="utf-8"?>
<!-- Generator: Adobe Illustrator 22.1.0, SVG Export Plug-In . SVG Version: 6.00 Build 0)  -->
<svg version="1.1" id="Layer_1" xmlns="http://www.w3.org/2000/svg" xmlns:xlink="http://www.w3.org/1999/xlink" x="0px" y="0px"
	 viewBox="0 0 2560 1600" style="enable-background:new 0 0 2560 1600;" xml:space="preserve">
<style type="text/css">
	.st0{fill:#0052A1;}
</style>
<g>
	<g>
		<path class="st0" d="M1584.4,383.8c0,6.8-4.3,10.3-13,10.3h-5.9c-8.7-1.1-19.5-1.6-32.7-1.6c-64.2,0-141.6,28.4-232.3,85.1
			c-51.6,32.3-94.9,65.5-129.8,99.4c-36,34.8-96.7,103.1-182.1,205c-103.3,123-183.9,205.5-242,247.4c-19.3,14-30.4,21-33.5,21
			c-1.5,0-2.4-0.6-2.7-1.6c0-0.3,4-4.4,12.1-12.3c35.5-35.4,72.1-104.1,109.8-206.4c33.8-91.3,60.5-157.9,80.2-199.8
			c19.7-41.9,40.7-76.9,63.1-104.8c5.3-6.6,8-10.3,8-11.1c-2-0.5-4,0.6-6.3,3.3l-4.2,4.1l-10.5,12.7
			c-18.1,22.2-60.7,76.6-127.7,163.2c-105.8,140.6-198.6,241.7-278.4,303.4c-43,32.9-68,49.3-74.9,49.3c-1.5-0.6-2.4-1.4-2.7-2.5
			c0-0.8,1.8-2.7,5.4-5.8c54.7-49,107.1-122.7,157.2-220.9c50.1-98.2,75.2-176.6,75.2-235.3c0-40-9.9-71.7-29.7-95.1
			c-19.8-23.4-46.9-35.1-81.2-35.1c-72.3,0-144.1,39.6-215.4,118.7c-71.3,79.1-107,159-107,239.5c0,33.4,9.3,60.4,27.8,80.9
			c18.6,20.5,42.8,30.8,72.6,30.8c63.1,0,122.8-42.3,179.2-126.9c36.6-55,54.9-104.1,54.9-147.1c0-20.3-5.1-36.6-15.3-48.9
			c-10.2-12.3-23.7-18.5-40.4-18.5c-10,0-19.8,2.4-29.3,7.2c-9.5,4.8-14.2,9.7-14.2,14.6c0,1.6,0.8,2.5,2.5,2.5
			c0.8,0,2.2-0.3,4.2-0.8c7-1.1,11.6-1.6,13.8-1.6c12.6,0,18.8,7,18.8,20.9c0,8.5-3.3,15.8-10,22c-6.7,6.2-14.5,9.2-23.4,9.2
			c-17.3,0-26-9.2-26-27.5c0-14.5,6.4-27.2,19.3-38c12.8-10.8,27.6-16.2,44.4-16.2c19.3,0,34.7,6.8,46.3,20.5
			c11.6,13.7,17.4,31.9,17.4,54.6c0,51.5-24,109.5-72,174.2C500.6,897,443.7,932.6,383.1,932.6c-35.2,0-64.1-13.2-86.9-39.7
			c-22.8-26.5-34.1-59.9-34.1-100.2c0-37.8,10.3-77.2,30.8-118.2c20.5-41.1,48.6-78.4,84.4-112.1c80.1-76.4,157-114.5,230.7-114.5
			c43.3,0,79.6,16.7,109.1,50.1c29.4,33.4,44.2,74.4,44.2,123.1c0,52.4-22.1,115.9-66.2,190.6c-44.1,74.7-97.6,138.9-160.4,192.7
			c-6.1,5.5-9.2,8.5-9.2,9c0.3,1.1,0.8,1.6,1.7,1.6c8.7,0,36.4-23.8,83.4-71.5c66.5-67.7,156.2-174.6,269.3-320.6
			c32.4-41.9,64.2-79.5,95.5-112.6c31.3-33.2,50.5-49.7,57.8-49.7c1.7,0,2.5,0.9,2.5,2.7c0,0.8-0.8,2.2-2.5,4.1
			c-17.6,23-31.8,46.4-42.7,70.3c-12.3,27.1-30.9,78.1-55.7,152.9c-27.4,81.6-52.2,143.8-74.6,186.6c-23.5,44.1-52.9,84-88.4,119.6
			c-0.6,1.1-1.1,2.1-1.7,2.9c0.3,0.8,0.8,1.4,1.7,1.6c4.7,0,24.7-17.9,59.9-53.8c24.6-24.9,93.2-104.4,206-238.3
			c58.3-69.3,110.5-124,156.6-164.2c46.1-40.1,97.8-75.9,155.3-107.5c78.4-43.3,146.8-64.9,205.2-64.9
			C1574.5,372.3,1584.4,376.1,1584.4,383.8z"/>
		<path class="st0" d="M2270.7,579.2c0,14.2-1.9,29.8-5.8,46.8c-3.9,17-7.6,25.4-11.2,25.4c-2.8,0-4.2-1.4-4.2-4.1
			c0-0.8,0.3-2,0.8-3.7c7.4-19.1,11.1-39.8,11.1-62c0-34.5-10.5-62.2-31.4-83.1s-48.6-31.4-82.9-31.4c-46.3,0-94.1,14.9-143.2,44.8
			c41.9,32.9,62.8,70.1,62.8,111.7c0,35.1-14.4,65.6-43.1,91.6c-28.7,26-62.3,39-100.8,39c-15.1,0-31.2-3-48.5-8.9
			c-17.3-5.9-25.9-11.5-25.9-16.8c0.6-1.7,1.7-2.5,3.3-2.5c1.4,0,3.6,0.8,6.7,2.5c17.3,9.7,34.7,14.6,52.3,14.6
			c31.8,0,59-13.4,81.8-40.3c22.7-26.8,34.1-58.9,34.1-96.1c0-32-11.7-60.7-35.2-85.9c-60.6,44.4-118.1,122.4-172.5,234.1
			c-32.9,67.6-63.1,116.4-90.4,146.2c-27.4,29.9-65.7,56.8-115.1,80.9c-58.3,27.9-110.4,41.9-156.2,41.9c-37.4,0-68.5-8.4-93.4-25.3
			c-24.8-16.8-37.3-37.9-37.3-63.1c0-14,4.3-26,12.8-36.1c8.5-10.1,18.6-15.2,30.4-15.2c17,0,25.5,9.3,25.5,27.9
			c0,9.3-2.9,17.3-8.6,23.8c-5.7,6.6-12.8,9.9-21.1,9.9c-14.5,0-21.5-7.4-20.9-22.2c0.3-6-0.3-9-1.7-9c-4.5,0-6.7,7.3-6.7,21.8
			c0,22.7,11.4,41.6,34.1,56.7c22.7,15.1,51.4,22.6,86,22.6c61.1,0,116.5-22.2,166.2-66.5c21.8-19.4,40.3-39.3,55.7-59.6
			c16.8-21.9,53.3-75,109.7-159.4c28.2-41.6,61.4-83.4,99.7-125.3c38.2-41.9,70.8-71.9,97.6-90c-43.5-36.4-107.5-54.6-191.8-54.6
			c-117.8,0-220.2,41.8-307.3,125.3c-71.5,68.5-107.2,133-107.2,193.5c0,30.7,10.1,55,30.1,73.1c20.1,18.1,47.3,27.1,81.6,27.1
			c56.1,0,114.1-26.4,174-79.3c59.9-52.8,89.8-104.2,89.8-154c0-39.7-20.8-59.6-62.4-59.6c-41.6,0-86.2,22.8-133.8,68.3
			c-47.6,45.6-71.4,88.3-71.4,128.3c0,9.9,3.4,18.3,10.1,25.4c6.7,7.1,14.6,10.7,23.6,10.7c4.8,0,7.2,1.2,7.2,3.7
			c0,2.2-2.7,3.3-8,3.3c-13.5,0-24.8-6-34-17.9c-9.3-11.9-13.9-26.5-13.9-43.7c0-42.7,23.9-84.3,71.6-124.8
			c47.7-40.5,96.7-60.7,147-60.7c48,0,72,21.8,72,65.3c0,53.1-30.6,106.8-91.7,161c-61.1,54.2-121.4,81.3-180.9,81.3
			c-38.8,0-69.9-11.4-93.2-34.3c-23.3-22.9-35-53.5-35-91.8c0-77.5,44.6-148.2,133.8-212.2c89.2-63.9,187.8-95.9,295.8-95.9
			c82.1,0,151,17.9,206.8,53.8c51.1-31.2,100.5-46.8,148.2-46.8c37.4,0,67.5,10.9,90.2,32.8C2259.3,514.5,2270.7,543.4,2270.7,579.2
			z"/>
		<path class="st0" d="M2305.2,637.7c19.4,0,37.5,4.8,54.3,14.3c16.8,9.5,30,22.5,39.7,39c9.7,16.5,14.5,34.3,14.5,53.3
			c0,19-4.8,36.8-14.5,53.2c-9.7,16.5-22.9,29.5-39.7,39c-16.8,9.5-34.9,14.3-54.3,14.3c-19.3,0-37.3-4.8-54.1-14.3
			c-16.8-9.5-30-22.5-39.7-39c-9.7-16.5-14.5-34.2-14.5-53.2c0-19,4.8-36.8,14.5-53.3c9.7-16.5,22.9-29.5,39.7-39
			C2267.9,642.5,2285.9,637.7,2305.2,637.7z M2305.2,647c-17.7,0-34.2,4.3-49.5,13c-15.3,8.7-27.4,20.5-36.3,35.6
			c-8.8,15-13.3,31.2-13.3,48.6c0,17.4,4.4,33.5,13.3,48.6c8.8,15,20.9,26.9,36.3,35.6c15.3,8.7,31.8,13,49.5,13
			c17.7,0,34.2-4.3,49.5-13c15.3-8.7,27.4-20.5,36.3-35.6c8.8-15,13.3-31.2,13.3-48.6c0-17.4-4.4-33.7-13.3-48.7
			c-8.8-15-20.9-26.8-36.3-35.5C2339.4,651.4,2322.9,647,2305.2,647z M2245.2,678.7h58.9c14.4,0,25.5,3.2,33.5,9.6
			c8,6.4,12,14.5,12,24.3c0,8.4-2.8,15.3-8.5,20.9c-5.6,5.5-14.1,9.6-25.5,12.3l31.9,44.7c3.7,5.1,6.9,8.5,9.5,10.2
			c2.6,1.7,5.6,2.6,9,2.8v5.2h-28l-44.9-60.8h-11.6v42.6c0,5,1.1,8.4,3.4,10.2c2.3,1.8,7.1,2.7,14.5,2.7v5.2h-56.1v-5.2
			c4.9,0,8.4-0.6,10.5-1.8c2.1-1.2,3.6-3,4.6-5.3c0.6-1.5,0.9-6,0.9-13.6v-83.9c0-5.7-1-9.5-2.9-11.5c-2-2-5.7-3-11.2-3.1V678.7z
			 M2281.5,741.2h4.5c13.5,0,23.3-2.5,29.6-7.4c6.3-4.9,9.4-11.6,9.4-20c0-8-2.9-14.7-8.7-20.2c-5.8-5.5-13.1-8.2-21.9-8.2
			c-3.9,0-8.2,0.7-13,2.2V741.2z"/>
	</g>
	<g>
		<path class="st0" d="M1109.8,824.5c18.8,31.3,33.3,54.2,43.3,68.6c10,14.4,20.9,28.5,32.8,42.3c22.7-27.6,34.1-50.1,34.1-67.5
			c0-7.8-2.8-14-8.5-18.6c-5.7-4.6-14.2-6.8-25.5-6.8h-11.5v-14.7h121.1v14.7h-9.1c-7.8,0-14.3,1.1-19.4,3.4
			c-5.1,2.3-9.8,5.8-14,10.6c-4.3,4.8-9.5,13.6-15.6,26.4c-12.4,25.8-25.7,47.4-39.8,64.9c19.9,19.9,37.2,29.9,52,29.9
			c9,0,16.5-3.5,22.5-10.5c6-7,10-19,12.1-36.1h13.7c0,26.6-5.8,46.9-17.5,60.7c-11.7,13.8-26.5,20.7-44.3,20.7
			c-10,0-20.2-2.5-30.6-7.5c-10.4-5-22.9-14-37.6-27.1c-16.8,13.1-31.9,22.1-45.1,27.1c-13.2,5-27.4,7.5-42.5,7.5
			c-27.4,0-50.1-8.6-68-25.8c-17.9-17.2-26.9-38.4-26.9-63.7c0-19.4,5.7-36.8,17.1-52.3c11.4-15.5,31.9-30.9,61.5-46.1
			c-13.8-27.8-20.7-50.9-20.7-69.4c0-20.1,7.4-37.2,22.3-51.3c14.9-14.1,33.1-21.1,54.8-21.1c20.6,0,36.9,5.2,48.8,15.6
			c11.9,10.4,17.9,24.2,17.9,41.4c0,16.4-5.7,31.4-17.1,45C1158.6,798.3,1138.6,811.6,1109.8,824.5z M1071.7,841.2
			c-30.6,16.7-45.9,36.7-45.9,60c0,17.9,7.1,36.8,21.4,56.5c14.3,19.7,32.1,29.6,53.5,29.6c18.1,0,36.7-7.2,55.5-21.6
			c-14.1-16.5-26.7-32.9-37.9-49C1107.1,900.5,1091.6,875.4,1071.7,841.2z M1101.6,808.1c20.9-9,35.3-18.5,43.1-28.7
			c7.8-10.2,11.8-22.4,11.8-36.6c0-13.4-3.6-24-10.8-31.8c-7.2-7.8-16.4-11.7-27.5-11.7c-11,0-20.2,3.7-27.4,11.2
			c-7.3,7.5-10.9,17.4-10.9,29.8C1079.8,758.2,1087,780.9,1101.6,808.1z"/>
	</g>
</g>
</svg>
