<?xml version="1.0" encoding="utf-8"?>
<!-- Generator: Adobe Illustrator 22.1.0, SVG Export Plug-In . SVG Version: 6.00 Build 0)  -->
<svg version="1.1" id="Layer_1" xmlns="http://www.w3.org/2000/svg" xmlns:xlink="http://www.w3.org/1999/xlink" x="0px" y="0px"
	 viewBox="0 0 2400 480" style="enable-background:new 0 0 2400 480;" xml:space="preserve">
<style type="text/css">
	.st0{fill:#FFFFFF;}
</style>
<g>
	<g>
		<path class="st0" d="M605.2,38.2c0,3.1-1.9,4.7-5.8,4.7h-2.6c-3.9-0.5-8.8-0.8-14.6-0.8c-28.8,0-63.5,13-104.1,38.9
			c-23.1,14.8-42.5,29.9-58.2,45.4c-16.1,15.9-43.3,47.1-81.6,93.7c-46.3,56.2-82.4,93.9-108.5,113c-8.6,6.4-13.6,9.6-15,9.6
			c-0.7,0-1.1-0.3-1.2-0.8c0-0.1,1.8-2,5.4-5.6c15.9-16.2,32.3-47.6,49.2-94.3c15.1-41.7,27.1-72.1,36-91.3s18.3-35.1,28.3-47.9
			c2.4-3,3.6-4.7,3.6-5.1c-0.9-0.2-1.8,0.3-2.8,1.5l-1.9,1.9l-4.7,5.8c-8.1,10.1-27.2,35-57.2,74.6c-47.4,64.2-89,110.4-124.8,138.6
			c-19.3,15-30.5,22.5-33.6,22.5c-0.7-0.3-1.1-0.6-1.2-1.1c0-0.4,0.8-1.3,2.4-2.6c24.5-22.4,48-56,70.5-100.9s33.7-80.7,33.7-107.5
			c0-18.3-4.4-32.8-13.3-43.5s-21-16.1-36.4-16.1c-32.4,0-64.6,18.1-96.6,54.2c-32,36.2-48,72.6-48,109.4c0,15.3,4.2,27.6,12.5,37
			s19.2,14.1,32.6,14.1c28.3,0,55.1-19.3,80.3-58c16.4-25.1,24.6-47.5,24.6-67.2c0-9.3-2.3-16.7-6.9-22.3s-10.6-8.4-18.1-8.4
			c-4.5,0-8.9,1.1-13.1,3.3c-4.3,2.2-6.4,4.4-6.4,6.7c0,0.8,0.4,1.1,1.1,1.1c0.4,0,1-0.1,1.9-0.4c3.1-0.5,5.2-0.8,6.2-0.8
			c5.6,0,8.4,3.2,8.4,9.6c0,3.9-1.5,7.2-4.5,10s-6.5,4.2-10.5,4.2c-7.8,0-11.6-4.2-11.6-12.6c0-6.6,2.9-12.4,8.6-17.4
			c5.8-4.9,12.4-7.4,19.9-7.4c8.6,0,15.5,3.1,20.7,9.4c5.2,6.3,7.8,14.6,7.8,25c0,23.5-10.8,50.1-32.3,79.6
			c-23.9,32.5-49.4,48.8-76.6,48.8c-15.8,0-28.7-6-38.9-18.1s-15.3-27.3-15.3-45.8c0-17.3,4.6-35.3,13.8-54
			c9.2-18.8,21.8-35.8,37.8-51.2c35.9-34.9,70.4-52.3,103.4-52.3c19.4,0,35.7,7.6,48.9,22.9c13.2,15.2,19.8,34,19.8,56.2
			c0,23.9-9.9,53-29.7,87.1c-19.8,34.1-43.7,63.5-71.9,88c-2.8,2.5-4.1,3.9-4.1,4.1c0.1,0.5,0.4,0.8,0.8,0.8
			c3.9,0,16.3-10.9,37.4-32.7c29.8-30.9,70-79.8,120.7-146.5c14.5-19.2,28.8-36.3,42.8-51.5c14-15.1,22.7-22.7,25.9-22.7
			c0.8,0,1.1,0.4,1.1,1.2c0,0.4-0.4,1-1.1,1.9c-7.9,10.5-14.3,21.2-19.2,32.1c-5.5,12.4-13.8,35.7-25,69.8
			c-12.3,37.3-23.4,65.7-33.4,85.2c-10.5,20.2-23.7,38.4-39.6,54.6c-0.3,0.5-0.5,0.9-0.8,1.3c0.1,0.4,0.4,0.6,0.8,0.8
			c2.1,0,11.1-8.2,26.8-24.6c11-11.4,41.8-47.7,92.3-108.9c26.1-31.7,49.5-56.7,70.2-75c20.6-18.3,43.9-34.7,69.6-49.1
			c35.2-19.8,65.8-29.7,92-29.7C600.8,32.9,605.2,34.7,605.2,38.2z"/>
		<path class="st0" d="M477,263.8c0,2.6-9.1,14.8-27.4,36.5c-14.8,17.8-26.4,26.7-35,26.7c-5.8,0-10.5-2.2-14.1-6.5
			s-5.4-9.7-5.4-16.2c0-6.8,2-14.1,6-22c-12.5,17.5-22.1,29.3-28.7,35.5c-6.6,6.1-13.1,9.2-19.3,9.2c-6.6,0-12.2-2.8-16.7-8.5
			s-6.8-12.9-6.8-21.5c0-24,17-45.3,50.9-63.8c14.9-8.3,26.9-12.4,36-12.4c7.8,0,11.6,3.8,11.6,11.3c0,2.1-0.5,4.9-1.5,8.4l9.6-18.2
			c3.8,0.9,7.1,1.3,9.9,1.3c3.4,0,7.8-0.4,13.1-1.3l-33.2,55c-11.5,19.3-17.3,32-17.3,38.1c0,5.9,2.4,8.8,7.3,8.8
			c5,0,13-5.7,24.1-17.2c11-11.5,22.2-25.6,33.6-42.4c0.8-1.3,1.4-1.9,2.1-1.9C476.6,262.7,477,263.1,477,263.8z M425.3,232.8
			c0-6.1-2.8-9.2-8.4-9.2c-11.5,0-26.6,11.3-45.3,33.8c-18.7,22.5-28.1,40.7-28.1,54.6c0,8.1,3.6,12.2,10.9,12.2
			c8.6,0,23.6-14.3,44.9-43C416.6,257.7,425.3,241.5,425.3,232.8z"/>
		<path class="st0" d="M605.7,264c0,2-6.8,10.6-20.3,25.7c-15.2,16.7-34.8,31.7-58.8,44.8l-9.4,17.1c-17,31.4-36.1,55.6-57.2,72.6
			c-20.3,16.4-37.8,24.6-52.6,24.6c-5.4,0-9.8-1.6-13.3-4.9c-3.5-3.3-5.3-7.3-5.3-12c0-25.7,29-51.7,86.9-78.1
			c12.5-5.8,20.6-9.6,24.2-11.6l31.9-58.7c-13.9,18.4-23.7,30.3-29.4,35.6s-11.5,8-17.5,8c-6.5,0-12-2.9-16.6-8.6
			c-4.6-5.8-6.9-12.8-6.9-21c0-21.6,14.1-41.3,42.4-58.9c18.9-11.8,33.7-17.6,44.5-17.6c7.5,0,11.3,4.1,11.3,12.4
			c0,2.3-0.6,4.9-1.7,8.1l10.5-19c3.4,0.9,6.3,1.3,8.8,1.3c3.3,0,8-0.4,14.3-1.3c-0.9,1.1-6.4,10.5-16.5,28.2L528.5,331
			c16.4-9.2,29.5-18.2,39.3-26.8s20.9-21.1,33.3-37.3c1.9-2.5,3.1-3.8,3.8-3.8C605.4,263,605.7,263.4,605.7,264z M498.1,345.4
			c-2.4,1.4-9.4,4.9-21.2,10.7c-57.1,28.3-85.6,53.7-85.6,76.2c0,3.9,1.4,7.1,4.3,9.8c2.9,2.6,6.6,3.9,11.1,3.9
			c13.8,0,27.2-7,40.2-21.1s29.3-39.3,49-75.7L498.1,345.4z M557.6,233.2c0-6.4-3.1-9.6-9.2-9.6c-11.3,0-26.2,11.2-44.8,33.7
			s-27.9,40.6-27.9,54.3c0,8.4,3.6,12.6,10.9,12.6c7.4,0,19.9-11.1,37.5-33.4C546.4,262.6,557.6,243.4,557.6,233.2z"/>
		<path class="st0" d="M756.4,263.8c0,2.6-9.1,14.8-27.2,36.5C714.3,318.1,702.6,327,694,327c-5.6,0-10.4-2.2-14.2-6.6
			c-3.8-4.4-5.7-9.8-5.7-16.1c0-5.6,1.2-10.9,3.5-15.7s8.4-14.4,18.1-28.6c10.1-15,15.2-24.6,15.2-28.7c0-5.1-2.7-7.7-8.1-7.7
			c-18.3,0-46.4,33.9-84.5,101.7c-6.1-0.5-9.8-0.8-11.1-0.8c-4.4,0-8.5,0.2-12.4,0.8l29.3-46.4c16.6-26.5,25-43.1,25-49.7
			c0-3.8-1.6-5.6-4.7-5.6c-6.4,0-19,13.5-37.8,40.4c-1.1,1.6-2,2.5-2.6,2.6c-0.6,0-1-0.4-1.1-1.1c0.1-0.6,0.4-1.1,0.8-1.5l3.6-4.7
			c19.2-25.7,32.1-38.6,38.7-38.6c4.3,0,7.9,1.9,10.9,5.8c3,3.9,4.5,8.5,4.5,13.9c0,8-4.7,19.1-14.1,33.4
			c14.8-20.4,26.1-34.3,34.1-41.9c7.9-7.5,15.3-11.3,22.1-11.3c5.5,0,10.1,2.3,13.9,6.8c3.8,4.5,5.6,10.1,5.6,16.7
			c0,8.4-5.8,21.2-17.3,38.5c-11.8,17.6-17.6,28.9-17.6,33.8c0,5.1,2.6,7.7,7.7,7.7c11.1,0,30.4-19.9,57.7-59.6
			c0.6-1.3,1.3-1.9,1.9-1.9C756.1,262.7,756.4,263.1,756.4,263.8z"/>
		<path class="st0" d="M851,264c0,0.4-1.1,2-3.4,4.9l-8.1,10.1c-25.9,32-48.2,48-66.7,48c-8.8,0-16.1-3.2-22.1-9.5
			c-5.9-6.3-8.9-14.2-8.9-23.7c0-22.5,15.7-42.4,47.1-59.5c16.5-9,30-13.5,40.4-13.5c4.5,0,8.4,1.3,11.5,4c3.2,2.7,4.8,6,4.8,9.9
			c0,9-5.9,16.7-17.6,23c-11.8,6.3-31.4,12.2-58.9,17.7c-8.5,12.9-12.8,23.6-12.8,32.3c0,10.8,5.8,16.1,17.5,16.1
			c19.8,0,44-19.3,72.7-57.9c1.5-2,2.8-3,3.8-3C850.8,263,851,263.4,851,264z M835.2,229.2c0-4-2.2-6-6.6-6
			c-6.6,0-15.4,4.6-26.2,13.8s-21.4,21.1-31.8,35.8c18-4.6,33.3-11.2,45.8-19.6C828.9,244.7,835.2,236.7,835.2,229.2z"/>
		<path class="st0" d="M958,263.8c0,1-3.8,5.6-11.3,13.7c-9.5,10.5-18.5,15.8-26.9,15.8c-9.5,0-14.3-5.5-14.3-16.5
			c0-3.5,0.8-7.9,2.3-13.3c-7.9,6.9-14.3,13.7-19.2,20.5s-13.5,20.5-25.6,41.3c-6.6-0.5-10.5-0.8-11.6-0.8c-0.5,0-4.3,0.2-11.4,0.8
			l30.8-49.9c15.4-25,23.1-40.5,23.1-46.5c0-3.5-1.4-5.3-4.3-5.3c-7,0-19.7,13.5-38.2,40.4c-1.1,1.8-2.1,2.6-3,2.6
			c-0.5-0.1-0.8-0.5-0.8-1.1c0.1-0.6,0.4-1.1,0.8-1.5l3.4-4.7c19.3-25.7,32.4-38.6,39.3-38.6c10,0,15,6.4,15,19.3
			c0,9.6-5.1,22.4-15.4,38.3c6.5-7.5,12.7-13.6,18.6-18.4c4.8-11.1,10.7-20.5,17.7-28c7.1-7.5,13.4-11.3,19.1-11.3
			c3.9,0,5.8,1.7,5.8,5.1c0,6-8.7,14.6-26.1,25.7c-2.8,1.8-6.9,4.3-12.4,7.7l-2.3,1.9c-1.8,5.8-2.6,10.5-2.6,14.3
			c0,10.5,3.9,15.8,11.8,15.8c9.8,0,20.4-8.1,32-24.3c2.5-2.8,4.1-4.1,4.7-4.1C957.6,262.7,958,263.1,958,263.8z"/>
		<path class="st0" d="M1661.6,127.4c0,6.5-0.9,13.6-2.6,21.4c-1.7,7.8-3.4,11.6-5,11.6c-1.3,0-1.9-0.6-1.9-1.9
			c0-0.4,0.1-0.9,0.4-1.7c3.3-8.7,5-18.2,5-28.3c0-15.7-4.7-28.4-14.1-38s-21.8-14.3-37.2-14.3c-20.8,0-42.2,6.8-64.2,20.5
			c18.8,15,28.2,32,28.2,51.1c0,16-6.4,30-19.3,41.9s-27.9,17.8-45.2,17.8c-6.8,0-14-1.4-21.8-4.1c-7.8-2.7-11.6-5.3-11.6-7.7
			c0.3-0.8,0.7-1.1,1.5-1.1c0.6,0,1.6,0.4,3,1.1c7.7,4.4,15.6,6.6,23.4,6.6c14.2,0,26.5-6.1,36.6-18.4
			c10.2-12.3,15.3-26.9,15.3-43.9c0-14.6-5.3-27.7-15.8-39.2c-27.2,20.3-52.9,55.9-77.3,107c-14.8,30.9-28.3,53.2-40.5,66.8
			c-12.3,13.6-29.5,26-51.6,37c-26.2,12.8-49.5,19.1-70,19.1c-16.8,0-30.7-3.8-41.9-11.5c-11.1-7.7-16.7-17.3-16.7-28.8
			c0-6.4,1.9-11.9,5.7-16.5c3.8-4.6,8.4-6.9,13.6-6.9c7.6,0,11.4,4.3,11.4,12.8c0,4.3-1.3,7.9-3.8,10.9c-2.6,3-5.7,4.5-9.5,4.5
			c-6.5,0-9.6-3.4-9.4-10.1c0.1-2.8-0.1-4.1-0.8-4.1c-2,0-3,3.3-3,9.9c0,10.4,5.1,19,15.3,25.9c10.2,6.9,23.1,10.3,38.6,10.3
			c27.4,0,52.2-10.1,74.5-30.4c9.8-8.9,18.1-18,25-27.2c7.5-10,23.9-34.3,49.2-72.8c12.6-19,27.5-38.1,44.7-57.2
			c17.1-19.1,31.7-32.8,43.7-41.1c-19.5-16.6-48.2-25-86-25c-52.8,0-98.7,19.1-137.8,57.2c-32,31.3-48,60.7-48,88.4
			c0,14,4.5,25.2,13.5,33.4c9,8.3,21.2,12.4,36.6,12.4c25.1,0,51.1-12.1,78-36.2c26.8-24.1,40.3-47.6,40.3-70.4
			c0-18.1-9.3-27.2-28-27.2c-18.6,0-38.6,10.4-60,31.2c-21.3,20.8-32,40.4-32,58.6c0,4.5,1.5,8.4,4.5,11.6c3,3.3,6.5,4.9,10.6,4.9
			c2.1,0,3.2,0.6,3.2,1.7c0,1-1.2,1.5-3.6,1.5c-6,0-11.1-2.7-15.3-8.2c-4.1-5.4-6.2-12.1-6.2-20c0-19.5,10.7-38.5,32.1-57
			s43.4-27.8,65.9-27.8c21.5,0,32.3,9.9,32.3,29.8c0,24.3-13.7,48.8-41.1,73.6s-54.4,37.2-81.1,37.2c-17.4,0-31.3-5.2-41.8-15.7
			c-10.4-10.4-15.7-24.4-15.7-41.9c0-35.4,20-67.7,60-96.9s84.2-43.8,132.6-43.8c36.8,0,67.7,8.2,92.7,24.6
			c22.9-14.3,45-21.4,66.4-21.4c16.8,0,30.2,5,40.4,15C1656.5,97.9,1661.6,111.1,1661.6,127.4z"/>
		<path class="st0" d="M1657.1,263.8c0,2.6-9.1,14.8-27.4,36.5c-14.8,17.8-26.4,26.7-35,26.7c-5.8,0-10.5-2.2-14.1-6.5
			s-5.4-9.7-5.4-16.2c0-6.8,2-14.1,6-22c-12.5,17.5-22.1,29.3-28.7,35.5c-6.6,6.1-13.1,9.2-19.3,9.2c-6.6,0-12.2-2.8-16.7-8.5
			s-6.8-12.9-6.8-21.5c0-24,17-45.3,50.9-63.8c14.9-8.3,26.9-12.4,36-12.4c7.8,0,11.6,3.8,11.6,11.3c0,2.1-0.5,4.9-1.5,8.4l9.6-18.2
			c3.8,0.9,7.1,1.3,9.9,1.3c3.4,0,7.8-0.4,13.1-1.3l-33.2,55c-11.5,19.3-17.3,32-17.3,38.1c0,5.9,2.4,8.8,7.3,8.8
			c5,0,13-5.7,24.1-17.2s22.2-25.6,33.6-42.4c0.8-1.3,1.4-1.9,2.1-1.9C1656.8,262.7,1657.1,263.1,1657.1,263.8z M1605.4,232.8
			c0-6.1-2.8-9.2-8.4-9.2c-11.5,0-26.6,11.3-45.3,33.8c-18.7,22.5-28.1,40.7-28.1,54.6c0,8.1,3.6,12.2,10.9,12.2
			c8.6,0,23.6-14.3,44.9-43C1596.7,257.7,1605.4,241.5,1605.4,232.8z"/>
		<path class="st0" d="M1764.5,263.8c0,1-3.8,5.6-11.3,13.7c-9.5,10.5-18.5,15.8-26.9,15.8c-9.5,0-14.3-5.5-14.3-16.5
			c0-3.5,0.8-7.9,2.3-13.3c-7.9,6.9-14.3,13.7-19.2,20.5c-4.9,6.8-13.5,20.5-25.6,41.3c-6.6-0.5-10.5-0.8-11.6-0.8
			c-0.5,0-4.3,0.2-11.4,0.8l30.8-49.9c15.4-25,23.1-40.5,23.1-46.5c0-3.5-1.4-5.3-4.3-5.3c-7,0-19.7,13.5-38.2,40.4
			c-1.1,1.8-2.1,2.6-3,2.6c-0.5-0.1-0.8-0.5-0.8-1.1c0.1-0.6,0.4-1.1,0.8-1.5l3.4-4.7c19.3-25.7,32.4-38.6,39.3-38.6
			c10,0,15,6.4,15,19.3c0,9.6-5.1,22.4-15.4,38.3c6.5-7.5,12.7-13.6,18.6-18.4c4.8-11.1,10.7-20.5,17.7-28
			c7.1-7.5,13.4-11.3,19.1-11.3c3.9,0,5.8,1.7,5.8,5.1c0,6-8.7,14.6-26.1,25.7c-2.8,1.8-6.9,4.3-12.4,7.7l-2.3,1.9
			c-1.8,5.8-2.6,10.5-2.6,14.3c0,10.5,3.9,15.8,11.8,15.8c9.8,0,20.4-8.1,32-24.3c2.5-2.8,4.1-4.1,4.7-4.1
			S1764.5,263.1,1764.5,263.8z"/>
		<path class="st0" d="M1833.5,220.8l-1.5,2.8h-24.6l-41.9,71.5c-5.1,8.6-7.7,15.5-7.7,20.6c0,5.6,2.9,8.4,8.8,8.4
			c11.4,0,30.6-19.9,57.7-59.6c0.9-1.3,1.6-1.9,2.3-1.9c0.8,0,1.1,0.4,1.1,1.1c-0.1,0.4-0.8,1.4-1.9,3l-8.1,11.1
			c-23.6,32.7-41.3,49.1-53.2,49.1c-5.9,0-10.8-2.1-14.8-6.4s-5.9-9.6-5.9-16c0-7.5,3.3-16.9,9.9-28.2l31.5-52.9h-19.1l1.9-2.8h18.8
			l22-36.4c3.8,1,7.3,1.5,10.7,1.5c3.5,0,7.1-0.5,10.9-1.5l-21.6,36.4h24.7V220.8z"/>
		<path class="st0" d="M1978.1,263.8c0,2.6-9.1,14.8-27.2,36.5c-14.9,17.8-26.6,26.7-35.1,26.7c-5.6,0-10.4-2.2-14.2-6.6
			c-3.8-4.4-5.7-9.8-5.7-16.1c0-5.6,1.2-10.9,3.5-15.7s8.4-14.4,18.1-28.6c10.1-15,15.2-24.6,15.2-28.7c0-5.1-2.7-7.7-8.1-7.7
			c-18.3,0-46.4,33.9-84.5,101.7c-6.1-0.5-9.8-0.8-11.1-0.8c-4.4,0-8.5,0.2-12.4,0.8l29.3-46.4c16.6-26.5,25-43.1,25-49.7
			c0-3.8-1.6-5.6-4.7-5.6c-6.4,0-19,13.5-37.8,40.4c-1.1,1.6-2,2.5-2.6,2.6c-0.6,0-1-0.4-1.1-1.1c0.1-0.6,0.4-1.1,0.8-1.5l3.6-4.7
			c19.2-25.7,32.1-38.6,38.7-38.6c4.3,0,7.9,1.9,10.9,5.8c3,3.9,4.5,8.5,4.5,13.9c0,8-4.7,19.1-14.1,33.4
			c14.8-20.4,26.1-34.3,34.1-41.9c7.9-7.5,15.3-11.3,22.1-11.3c5.5,0,10.1,2.3,13.9,6.8s5.6,10.1,5.6,16.7c0,8.4-5.8,21.2-17.3,38.5
			c-11.8,17.6-17.6,28.9-17.6,33.8c0,5.1,2.6,7.7,7.7,7.7c11.2,0,30.4-19.9,57.7-59.6c0.6-1.3,1.3-1.9,1.9-1.9
			C1977.7,262.7,1978.1,263.1,1978.1,263.8z"/>
		<path class="st0" d="M2072.7,264c0,0.4-1.1,2-3.4,4.9l-8.1,10.1c-25.9,32-48.2,48-66.7,48c-8.8,0-16.1-3.2-22.1-9.5
			c-5.9-6.3-8.9-14.2-8.9-23.7c0-22.5,15.7-42.4,47.1-59.5c16.5-9,30-13.5,40.4-13.5c4.5,0,8.4,1.3,11.5,4c3.2,2.7,4.8,6,4.8,9.9
			c0,9-5.9,16.7-17.6,23c-11.8,6.3-31.4,12.2-58.9,17.7c-8.5,12.9-12.8,23.6-12.8,32.3c0,10.8,5.8,16.1,17.5,16.1
			c19.8,0,44-19.3,72.7-57.9c1.5-2,2.8-3,3.8-3C2072.4,263,2072.7,263.4,2072.7,264z M2056.8,229.2c0-4-2.2-6-6.6-6
			c-6.6,0-15.4,4.6-26.2,13.8s-21.4,21.1-31.8,35.8c18-4.6,33.3-11.2,45.8-19.6C2050.6,244.7,2056.8,236.7,2056.8,229.2z"/>
		<path class="st0" d="M2179.7,263.8c0,1-3.8,5.6-11.3,13.7c-9.5,10.5-18.5,15.8-26.9,15.8c-9.5,0-14.3-5.5-14.3-16.5
			c0-3.5,0.8-7.9,2.3-13.3c-7.9,6.9-14.3,13.7-19.2,20.5s-13.5,20.5-25.6,41.3c-6.6-0.5-10.5-0.8-11.6-0.8c-0.5,0-4.3,0.2-11.4,0.8
			l30.8-49.9c15.4-25,23.1-40.5,23.1-46.5c0-3.5-1.4-5.3-4.3-5.3c-7,0-19.7,13.5-38.2,40.4c-1.1,1.8-2.1,2.6-3,2.6
			c-0.5-0.1-0.8-0.5-0.8-1.1c0.1-0.6,0.4-1.1,0.8-1.5l3.4-4.7c19.3-25.7,32.4-38.6,39.3-38.6c10,0,15,6.4,15,19.3
			c0,9.6-5.1,22.4-15.4,38.3c6.5-7.5,12.7-13.6,18.6-18.4c4.8-11.1,10.7-20.5,17.7-28c7.1-7.5,13.4-11.3,19.1-11.3
			c3.9,0,5.8,1.7,5.8,5.1c0,6-8.7,14.6-26.1,25.7c-2.8,1.8-6.9,4.3-12.4,7.7l-2.3,1.9c-1.8,5.8-2.6,10.5-2.6,14.3
			c0,10.5,3.9,15.8,11.8,15.8c9.8,0,20.4-8.1,32-24.3c2.5-2.8,4.1-4.1,4.7-4.1S2179.7,263.1,2179.7,263.8z"/>
		<path class="st0" d="M2242.8,191c0,5-7.8,14.9-23.5,29.7c-0.8,3.9-1.1,7.3-1.1,10.1c0,7.3,3.3,18.8,9.9,34.5
			c3.4,7.9,5.1,14.5,5.1,19.9c0,11.3-5.5,21-16.4,29.3c-11,8.3-23.9,12.4-38.9,12.4c-8.5,0-15.3-2.4-20.4-7.2s-7.6-11.3-7.6-19.4
			c0-9.4,3.3-18.5,10-27.4s13.6-13.3,20.7-13.3c1.2,0,2.4,0.3,3.4,0.8l15-18.4c4.5-5.4,10.5-12.8,18-22.3c2.1-8.8,5.4-16.3,9.8-22.5
			c4.4-6.3,8.7-9.4,13-9.4C2241.8,187.7,2242.8,188.8,2242.8,191z M2216.7,265.1c0-3.8-0.1-7.5-0.4-11.2c-0.3-3.7-0.4-9-0.4-15.9
			c0-5.6,0.2-10.3,0.8-14.1c-7,8.9-17.1,21.4-30.4,37.5c2.4,2,3.6,4.4,3.6,7.3c0,7.4-6.1,12.4-18.2,15c-4.9,1.1-9.1,3.8-12.7,8
			c-3.6,4.2-5.3,8.6-5.3,13.2c0,5,1.8,9.2,5.4,12.6c3.6,3.4,8.1,5.1,13.5,5.1c10.5,0,20.5-6.1,29.9-18.3
			C2212,292.2,2216.7,279.1,2216.7,265.1z"/>
		<path class="st0" d="M2338.6,153.8c8.8,0,16.9,2.2,24.5,6.6c7.6,4.4,13.6,10.4,17.9,18c4.4,7.6,6.6,15.8,6.6,24.5
			c0,8.8-2.2,16.9-6.6,24.5c-4.4,7.6-10.4,13.6-17.9,17.9c-7.6,4.4-15.7,6.6-24.5,6.6c-8.7,0-16.9-2.2-24.4-6.6
			c-7.6-4.4-13.6-10.4-17.9-17.9c-4.4-7.6-6.6-15.7-6.6-24.5s2.2-16.9,6.6-24.5c4.4-7.6,10.4-13.6,17.9-18
			C2321.8,156,2329.9,153.8,2338.6,153.8z M2338.6,158.1c-8,0-15.4,2-22.4,6c-6.9,4-12.4,9.4-16.4,16.4c-4,6.9-6,14.4-6,22.4
			s2,15.4,6,22.4c4,6.9,9.4,12.4,16.4,16.4c6.9,4,14.4,6,22.4,6s15.4-2,22.4-6c6.9-4,12.4-9.4,16.4-16.4c4-6.9,6-14.4,6-22.4
			s-2-15.5-6-22.4s-9.5-12.3-16.4-16.3C2354.1,160.1,2346.6,158.1,2338.6,158.1z M2311.5,172.7h26.6c6.5,0,11.5,1.5,15.1,4.4
			s5.4,6.7,5.4,11.2c0,3.9-1.3,7.1-3.8,9.6s-6.4,4.4-11.5,5.6l14.4,20.6c1.7,2.4,3.1,3.9,4.3,4.7s2.5,1.2,4.1,1.3v2.4h-12.7
			l-20.3-28h-5.2v19.6c0,2.3,0.5,3.9,1.5,4.7s3.2,1.3,6.6,1.3v2.4h-25.3v-2.4c2.2,0,3.8-0.3,4.7-0.8s1.6-1.4,2.1-2.4
			c0.3-0.7,0.4-2.8,0.4-6.3V182c0-2.6-0.4-4.4-1.3-5.3s-2.6-1.4-5.1-1.4V172.7z M2327.9,201.5h2c6.1,0,10.5-1.1,13.4-3.4
			c2.8-2.3,4.3-5.3,4.3-9.2c0-3.7-1.3-6.8-3.9-9.3c-2.6-2.5-5.9-3.8-9.9-3.8c-1.8,0-3.7,0.3-5.9,1L2327.9,201.5L2327.9,201.5z"/>
	</g>
	<g>
		<path class="st0" d="M1081.9,241.8c9,15.3,15.9,26.4,20.7,33.4c4.8,7,10,13.9,15.7,20.6c10.8-13.4,16.3-24.4,16.3-32.9
			c0-3.8-1.4-6.8-4.1-9s-6.8-3.3-12.2-3.3h-5.5v-7.2h57.8v7.2h-4.4c-3.7,0-6.8,0.6-9.3,1.7c-2.4,1.1-4.7,2.8-6.7,5.1
			s-4.5,6.6-7.4,12.8c-5.9,12.5-12.3,23.1-19,31.6c9.5,9.7,17.8,14.6,24.8,14.6c4.3,0,7.9-1.7,10.8-5.1c2.9-3.4,4.8-9.3,5.8-17.6
			h6.6c0,13-2.8,22.8-8.4,29.5s-12.6,10.1-21.2,10.1c-4.8,0-9.7-1.2-14.6-3.6c-5-2.4-10.9-6.8-17.9-13.2c-8,6.4-15.2,10.8-21.5,13.2
			s-13.1,3.6-20.3,3.6c-13.1,0-23.9-4.2-32.5-12.6c-8.6-8.4-12.8-18.7-12.8-31c0-9.4,2.7-17.9,8.2-25.5c5.4-7.6,15.2-15,29.4-22.5
			c-6.6-13.5-9.9-24.8-9.9-33.8c0-9.8,3.6-18.1,10.7-25s15.8-10.3,26.2-10.3c9.8,0,17.6,2.5,23.3,7.6c5.7,5.1,8.5,11.8,8.5,20.2
			c0,8-2.7,15.3-8.2,21.9C1105.3,229.1,1095.7,235.5,1081.9,241.8z M1063.7,249.9c-14.6,8.1-21.9,17.9-21.9,29.2
			c0,8.7,3.4,17.9,10.2,27.5c6.8,9.6,15.3,14.4,25.5,14.4c8.7,0,17.5-3.5,26.5-10.5c-6.7-8-12.8-16-18.1-23.9
			C1080.7,278.8,1073.2,266.6,1063.7,249.9z M1078,233.8c10-4.4,16.8-9,20.6-14c3.7-5,5.6-10.9,5.6-17.8c0-6.5-1.7-11.7-5.1-15.5
			s-7.8-5.7-13.2-5.7c-5.3,0-9.6,1.8-13.1,5.5c-3.5,3.6-5.2,8.5-5.2,14.5C1067.6,209.6,1071.1,220.6,1078,233.8z"/>
	</g>
</g>
</svg>
